<?xml version="1.0" standalone="no"?><!DOCTYPE svg PUBLIC "-//W3C//DTD SVG 1.1//EN" "http://www.w3.org/Graphics/SVG/1.1/DTD/svg11.dtd"><svg t="1705566284702" class="icon" viewBox="0 0 1024 1024" version="1.1" xmlns="http://www.w3.org/2000/svg" p-id="3568" xmlns:xlink="http://www.w3.org/1999/xlink" width="200" height="200"><path d="M133.76 577.92c-23.466667 0-42.666667 19.2-42.666667 42.666667v258.56c0 23.466667 19.2 42.666667 42.666667 42.666666s42.666667-19.2 42.666667-42.666666V620.586667c0-23.466667-19.2-42.666667-42.666667-42.666667zM318.933333 450.133333c-23.466667 0-42.666667 19.2-42.666666 42.666667v395.306667c0 23.466667 19.2 42.666667 42.666666 42.666666s42.666667-19.2 42.666667-42.666666V492.8a42.666667 42.666667 0 0 0-42.666667-42.666667zM689.493333 532.266667c-23.466667 0-42.666667 19.2-42.666666 42.666666v313.173334c0 23.466667 19.2 42.666667 42.666666 42.666666s42.666667-19.2 42.666667-42.666666V574.933333c0-23.466667-19.2-42.666667-42.666667-42.666666zM504.106667 532.266667c-23.466667 0-42.666667 19.2-42.666667 42.666666v313.173334c0 23.466667 19.2 42.666667 42.666667 42.666666s42.666667-19.2 42.666666-42.666666V574.933333a42.666667 42.666667 0 0 0-42.666666-42.666666zM874.666667 450.133333c-23.466667 0-42.666667 19.2-42.666667 42.666667v395.306667c0 23.466667 19.2 42.666667 42.666667 42.666666s42.666667-19.2 42.666666-42.666666V492.8c0-23.466667-19.2-42.666667-42.666666-42.666667z" p-id="3569"></path><path d="M935.68 154.24c-1.28-34.986667-31.36-62.293333-66.133333-61.013333l-88.32 3.626666c-23.466667 0.853333-41.813333 20.906667-40.96 44.373334 0.853333 22.826667 19.2 40.533333 42.026666 40.746666l-148.266666 175.786667c-4.693333 5.12-12.8 5.546667-17.92 0.64l-166.613334-154.453333a97.706667 97.706667 0 0 0-132.053333-1.28L99.626667 397.226667c-17.493333 15.786667-19.2 42.666667-3.413334 60.16 8.533333 9.386667 20.053333 14.293333 31.786667 14.293333 10.026667 0 20.266667-3.626667 28.373333-10.88l217.813334-194.56c4.906667-4.48 12.373333-4.266667 17.066666 0.213333l166.826667 154.453334a98.133333 98.133333 0 0 0 138.666667-5.546667l156.8-185.6c1.92 21.973333 20.266667 39.04 42.453333 39.04h1.706667c23.466667-0.853333 41.813333-20.906667 40.96-44.373333l-2.986667-70.186667z" p-id="3570"></path></svg>
